<svg id="Layer_1" data-name="Layer 1" xmlns="http://www.w3.org/2000/svg" viewBox="0 0 726.43 570.92"><defs><style>.cls-1{fill:#93d0cd;}.cls-1,.cls-10,.cls-11,.cls-2,.cls-3,.cls-4,.cls-6,.cls-7,.cls-8,.cls-9{stroke:#231f20;stroke-miterlimit:10;}.cls-2{fill:#a883ba;}.cls-3{fill:#dd9c32;}.cls-4{fill:#da91bf;}.cls-10,.cls-11,.cls-5{fill:#231f20;}.cls-6{fill:#ffde17;}.cls-8,.cls-9{fill:none;}.cls-11,.cls-8,.cls-9{stroke-width:3px;}.cls-9{stroke-linecap:round;}</style></defs><title>hubStack</title><rect class="cls-1" x="49.56" y="481.72" width="336.52" height="88.7"/><polygon class="cls-2" points="352.84 429.54 217.82 464.97 82.81 429.54 82.81 358.68 217.82 323.25 352.84 358.68 352.84 429.54"/><ellipse class="cls-3" cx="217.82" cy="234.18" rx="145.32" ry="76.72"/><polygon class="cls-4" points="493.97 294.23 416.75 234.18 493.97 174.13 648.4 174.13 725.61 234.18 648.4 294.23 493.97 294.23"/><path class="cls-5" d="M56.73,507.38h4.76L67,525H62.8l-2.3-8.91c-.49-1.76-1-3.84-1.43-5.68H59c-.42,1.86-.89,3.92-1.38,5.68L55.27,525H51.2Zm-1.89,10.31h8.47v3.1H54.84Z" transform="translate(0 -4.82)"/><path class="cls-5" d="M68.59,511.58h3.24l.29,1.72h.09a5.62,5.62,0,0,1,4.06-2,3.7,3.7,0,0,1,3.7,2.25c1.18-1.22,2.43-2.25,4.2-2.25,2.9,0,4.19,2,4.19,5.4V525h-4v-7.81c0-1.93-.52-2.53-1.65-2.53a3.44,3.44,0,0,0-2.28,1.3v9h-4v-7.81c0-1.93-.52-2.53-1.65-2.53a3.46,3.46,0,0,0-2.28,1.3v9h-4Z" transform="translate(0 -4.82)"/><path class="cls-5" d="M91.12,521.26c0-2.82,2.24-4.35,7.54-4.91a1.86,1.86,0,0,0-2.12-1.93A7.34,7.34,0,0,0,93,515.63L91.59,513a10.92,10.92,0,0,1,5.72-1.76c3.42,0,5.32,2,5.32,6.06V525H99.39l-.29-1.38H99a5.87,5.87,0,0,1-3.89,1.7A3.86,3.86,0,0,1,91.12,521.26Zm7.54-.18v-2.33c-2.82.38-3.74,1.18-3.74,2.2,0,.86.59,1.28,1.53,1.28A3,3,0,0,0,98.66,521.08Z" transform="translate(0 -4.82)"/><path class="cls-5" d="M105.23,522.85l5.62-8.15h-5v-3.12h9.93v2.13l-5.62,8.15H116V525H105.23Z" transform="translate(0 -4.82)"/><path class="cls-5" d="M117.33,518.28c0-4.45,3.14-7,6.53-7s6.52,2.57,6.52,7-3.14,7-6.52,7S117.33,522.73,117.33,518.28Zm9,0c0-2.31-.81-3.82-2.45-3.82s-2.46,1.51-2.46,3.82.81,3.82,2.46,3.82S126.31,520.6,126.31,518.28Z" transform="translate(0 -4.82)"/><path class="cls-5" d="M133.09,511.58h3.24l.29,1.7h.1a6.12,6.12,0,0,1,4.3-2c2.91,0,4.15,2,4.15,5.4V525h-4v-7.81c0-1.93-.52-2.53-1.67-2.53a3.42,3.42,0,0,0-2.48,1.3v9h-4Z" transform="translate(0 -4.82)"/><path class="cls-5" d="M152.56,507.38h4.07l1.22,8.22c.23,1.85.49,3.71.72,5.56h.11c.34-1.85.69-3.73,1-5.56l1.89-8.22H165l1.89,8.22c.36,1.79.71,3.69,1.06,5.56h.11c.23-1.87.48-3.75.71-5.56l1.22-8.22h3.8L170.65,525h-5l-1.72-8c-.28-1.36-.51-2.77-.71-4.09h-.1c-.22,1.32-.44,2.73-.72,4.09l-1.66,8h-4.92Z" transform="translate(0 -4.82)"/><path class="cls-5" d="M175.11,518.28c0-4.34,3.1-7,6.32-7,3.81,0,5.7,2.77,5.7,6.43a9.54,9.54,0,0,1-.16,1.75h-8a3.23,3.23,0,0,0,3.47,2.84,5.56,5.56,0,0,0,2.89-.88l1.32,2.39a8.75,8.75,0,0,1-4.75,1.51C178.07,525.3,175.11,522.72,175.11,518.28Zm8.63-1.46c0-1.48-.64-2.54-2.22-2.54a2.67,2.67,0,0,0-2.61,2.54Z" transform="translate(0 -4.82)"/><path class="cls-5" d="M193.41,523.55h-.1L193,525h-3.1V506.07h4v4.61l-.1,2.06a5.44,5.44,0,0,1,3.55-1.48c3.24,0,5.25,2.68,5.25,6.79,0,4.61-2.74,7.25-5.64,7.25A4.86,4.86,0,0,1,193.41,523.55Zm5.06-5.44c0-2.4-.74-3.6-2.33-3.6a3.07,3.07,0,0,0-2.3,1.2v5.5a3.22,3.22,0,0,0,2.14.84C197.36,522.05,198.47,520.88,198.47,518.11Z" transform="translate(0 -4.82)"/><path class="cls-5" d="M209.72,522.76,212,520a7,7,0,0,0,4.32,1.84c1.66,0,2.47-.66,2.47-1.7s-1-1.47-2.54-2.1l-2.28-1a5.14,5.14,0,0,1-3.55-4.8c0-2.91,2.6-5.24,6.26-5.24a8.14,8.14,0,0,1,5.66,2.3l-2,2.51a5.73,5.73,0,0,0-3.66-1.38c-1.37,0-2.24.57-2.24,1.58s1.15,1.47,2.69,2.08l2.24.91c2.15.87,3.49,2.3,3.49,4.79,0,2.92-2.44,5.45-6.63,5.45A9.74,9.74,0,0,1,209.72,522.76Z" transform="translate(0 -4.82)"/><path class="cls-5" d="M224.76,518.28c0-4.34,3.1-7,6.32-7,3.82,0,5.7,2.77,5.7,6.43a8.72,8.72,0,0,1-.16,1.75h-8a3.23,3.23,0,0,0,3.47,2.84,5.6,5.6,0,0,0,2.9-.88l1.31,2.39a8.7,8.7,0,0,1-4.75,1.51C227.72,525.3,224.76,522.72,224.76,518.28Zm8.64-1.46c0-1.48-.65-2.54-2.23-2.54a2.67,2.67,0,0,0-2.61,2.54Z" transform="translate(0 -4.82)"/><path class="cls-5" d="M239.53,511.58h3.24l.28,2.34h.1a4.53,4.53,0,0,1,3.8-2.66,3.75,3.75,0,0,1,1.6.27l-.66,3.42a5.81,5.81,0,0,0-1.44-.21c-1,0-2.24.65-2.95,2.47V525h-4Z" transform="translate(0 -4.82)"/><path class="cls-5" d="M249,511.58h4l1.74,6.33c.34,1.33.7,2.71,1,4.11h.11c.34-1.4.69-2.78,1-4.11l1.75-6.33h3.8L258.13,525h-4.58Z" transform="translate(0 -4.82)"/><path class="cls-5" d="M264.28,507.55a2.31,2.31,0,0,1,4.59,0,2.31,2.31,0,0,1-4.59,0Zm.3,4h4V525h-4Z" transform="translate(0 -4.82)"/><path class="cls-5" d="M271.26,518.28a6.74,6.74,0,0,1,7-7,5.86,5.86,0,0,1,3.92,1.44l-1.88,2.55a2.72,2.72,0,0,0-1.81-.79c-1.91,0-3.14,1.51-3.14,3.82s1.28,3.82,3,3.82a4.06,4.06,0,0,0,2.42-1l1.55,2.6a6.67,6.67,0,0,1-4.41,1.59C274.14,525.3,271.26,522.73,271.26,518.28Z" transform="translate(0 -4.82)"/><path class="cls-5" d="M283.11,518.28c0-4.34,3.1-7,6.32-7,3.81,0,5.7,2.77,5.7,6.43a9.54,9.54,0,0,1-.16,1.75h-8a3.24,3.24,0,0,0,3.48,2.84,5.56,5.56,0,0,0,2.89-.88l1.32,2.39a8.76,8.76,0,0,1-4.76,1.51C286.07,525.3,283.11,522.72,283.11,518.28Zm8.63-1.46c0-1.48-.64-2.54-2.22-2.54a2.67,2.67,0,0,0-2.61,2.54Z" transform="translate(0 -4.82)"/><path class="cls-5" d="M296.69,523.43l1.78-2.47a5.81,5.81,0,0,0,3.46,1.4c1.18,0,1.69-.45,1.69-1.15,0-.88-1.33-1.28-2.7-1.82-1.65-.64-3.55-1.72-3.55-3.94,0-2.49,2-4.19,5.12-4.19a7.61,7.61,0,0,1,4.72,1.7l-1.78,2.38a5,5,0,0,0-2.82-1.14c-1,0-1.53.4-1.53,1.06,0,.86,1.26,1.19,2.64,1.69,1.7.63,3.61,1.58,3.61,4s-1.91,4.32-5.5,4.32A8.74,8.74,0,0,1,296.69,523.43Z" transform="translate(0 -4.82)"/><path class="cls-5" d="M315.43,517.47A22.72,22.72,0,0,1,319,505.14l2.49,1a23.83,23.83,0,0,0,0,22.6l-2.49,1A22.78,22.78,0,0,1,315.43,517.47Z" transform="translate(0 -4.82)"/><path class="cls-5" d="M328.13,507.38h4.76l5.52,17.6H334.2l-2.3-8.91c-.49-1.76-1-3.84-1.43-5.68h-.11c-.42,1.86-.89,3.92-1.38,5.68L326.67,525H322.6Zm-1.89,10.31h8.47v3.1h-8.47Z" transform="translate(0 -4.82)"/><path class="cls-5" d="M338.61,507.38h4.08l1.22,8.22c.23,1.85.48,3.71.71,5.56h.11c.34-1.85.7-3.73,1-5.56l1.89-8.22h3.38l1.89,8.22c.35,1.79.7,3.69,1.05,5.56h.11c.23-1.87.48-3.75.71-5.56l1.22-8.22h3.8L356.7,525h-5L350,517c-.28-1.36-.51-2.77-.7-4.09h-.11c-.21,1.32-.43,2.73-.71,4.09l-1.67,8h-4.91Z" transform="translate(0 -4.82)"/><path class="cls-5" d="M361.08,522.76l2.29-2.73a7,7,0,0,0,4.32,1.84c1.66,0,2.47-.66,2.47-1.7s-1-1.47-2.54-2.1l-2.28-1a5.14,5.14,0,0,1-3.55-4.8c0-2.91,2.6-5.24,6.26-5.24a8.14,8.14,0,0,1,5.66,2.3l-2,2.51a5.73,5.73,0,0,0-3.66-1.38c-1.37,0-2.24.57-2.24,1.58s1.15,1.47,2.69,2.08l2.24.91c2.15.87,3.49,2.3,3.49,4.79,0,2.92-2.44,5.45-6.63,5.45A9.74,9.74,0,0,1,361.08,522.76Z" transform="translate(0 -4.82)"/><path class="cls-5" d="M376.45,528.77a23.83,23.83,0,0,0,0-22.6l2.49-1a23.09,23.09,0,0,1,0,24.67Z" transform="translate(0 -4.82)"/><path class="cls-5" d="M155.21,555.07l1.34-1.55a6.91,6.91,0,0,0,4.89,2.2c2.33,0,3.71-1.16,3.71-2.88s-1.29-2.39-3-3.12l-2.54-1.12c-1.66-.7-3.59-2-3.59-4.56s2.36-4.7,5.58-4.7a7.31,7.31,0,0,1,5.21,2.19L165.66,543a5.7,5.7,0,0,0-4-1.66c-2,0-3.31,1-3.31,2.58s1.55,2.35,2.94,2.94l2.52,1.09c2.05.88,3.65,2.1,3.65,4.74,0,2.79-2.31,5-6,5A8.46,8.46,0,0,1,155.21,555.07Z" transform="translate(0 -4.82)"/><path class="cls-5" d="M169.73,550.83c0-4.27,2.87-6.9,5.89-6.9,3.35,0,5.24,2.4,5.24,6.16a7.39,7.39,0,0,1-.1,1.26h-8.84c.16,2.78,1.86,4.58,4.36,4.58a5.79,5.79,0,0,0,3.27-1l.79,1.46A7.73,7.73,0,0,1,176,557.7C172.51,557.7,169.73,555.14,169.73,550.83Zm9.17-1.07c0-2.63-1.18-4.06-3.24-4.06-1.84,0-3.49,1.48-3.76,4.06Z" transform="translate(0 -4.82)"/><path class="cls-5" d="M184.09,544.25h1.84l.18,2.39h.08c.91-1.66,2.25-2.71,3.73-2.71a3,3,0,0,1,1.4.27l-.42,1.95a3.68,3.68,0,0,0-1.27-.22c-1.11,0-2.43.8-3.32,3v8.43h-2.22Z" transform="translate(0 -4.82)"/><path class="cls-5" d="M192.25,544.25h2.28l2.49,7.46c.39,1.28.81,2.62,1.21,3.87h.1c.4-1.25.82-2.59,1.21-3.87l2.49-7.46h2.17l-4.64,13.13H197Z" transform="translate(0 -4.82)"/><path class="cls-5" d="M205.66,550.83c0-4.27,2.88-6.9,5.9-6.9,3.35,0,5.24,2.4,5.24,6.16a6.41,6.41,0,0,1-.11,1.26h-8.83c.16,2.78,1.86,4.58,4.36,4.58a5.73,5.73,0,0,0,3.26-1l.8,1.46a7.74,7.74,0,0,1-4.34,1.36C208.45,557.7,205.66,555.14,205.66,550.83Zm9.17-1.07c0-2.63-1.18-4.06-3.23-4.06-1.84,0-3.49,1.48-3.76,4.06Z" transform="translate(0 -4.82)"/><path class="cls-5" d="M220,544.25h1.83l.19,2.39h.07c.92-1.66,2.26-2.71,3.73-2.71a3,3,0,0,1,1.41.27l-.42,1.95a3.72,3.72,0,0,0-1.27-.22c-1.11,0-2.43.8-3.32,3v8.43H220Z" transform="translate(0 -4.82)"/><path class="cls-5" d="M234.8,538.15H237v5.26l-.08,2.69a6.24,6.24,0,0,1,4.35-2.17c2.77,0,4,1.78,4,5.13v8.32h-2.22v-8c0-2.44-.74-3.49-2.48-3.49-1.34,0-2.27.68-3.58,2v9.51H234.8Z" transform="translate(0 -4.82)"/><path class="cls-5" d="M248.51,550.83c0-4.38,2.86-6.9,6.08-6.9s6.08,2.52,6.08,6.9-2.86,6.87-6.08,6.87S248.51,555.18,248.51,550.83Zm9.87,0c0-3-1.53-5.05-3.79-5.05s-3.79,2.05-3.79,5.05,1.53,5,3.79,5S258.38,553.84,258.38,550.83Z" transform="translate(0 -4.82)"/><path class="cls-5" d="M262.61,555.88l1.1-1.46a5.91,5.91,0,0,0,3.87,1.55c1.72,0,2.58-.92,2.58-2,0-1.35-1.55-1.94-3-2.48-1.84-.68-3.92-1.58-3.92-3.79s1.69-3.73,4.53-3.73a6.64,6.64,0,0,1,4.08,1.48l-1.06,1.42a4.94,4.94,0,0,0-3-1.17c-1.65,0-2.41.88-2.41,1.88,0,1.25,1.42,1.72,2.91,2.28,1.89.71,4,1.48,4,4,0,2.13-1.69,3.9-4.78,3.9A7.88,7.88,0,0,1,262.61,555.88Z" transform="translate(0 -4.82)"/><path class="cls-5" d="M275.23,553.32v-7.26h-2v-1.68l2.06-.13.26-3.67h1.86v3.67H281v1.81h-3.55v7.3c0,1.6.51,2.53,2,2.53a4.56,4.56,0,0,0,1.49-.35l.43,1.67a8,8,0,0,1-2.43.49C276.17,557.7,275.23,555.93,275.23,553.32Z" transform="translate(0 -4.82)"/><path class="cls-5" d="M86.36,362.28h11v3.34h-7v3.53h6v3.34h-6v4.05h7.31v3.34H86.36Z" transform="translate(0 -4.82)"/><path class="cls-5" d="M100.82,375.71V361h4v14.92c0,.85.4,1.12.72,1.12a1.61,1.61,0,0,0,.49-.06l.47,2.93a5.09,5.09,0,0,1-2,.33C101.75,380.2,100.82,378.42,100.82,375.71Z" transform="translate(0 -4.82)"/><path class="cls-5" d="M107.93,376.16c0-2.82,2.24-4.35,7.54-4.91a1.86,1.86,0,0,0-2.12-1.93,7.34,7.34,0,0,0-3.54,1.21l-1.41-2.61a10.92,10.92,0,0,1,5.72-1.76c3.42,0,5.32,2,5.32,6.06v7.66H116.2l-.28-1.38h-.1a5.89,5.89,0,0,1-3.9,1.7A3.86,3.86,0,0,1,107.93,376.16Zm7.54-.18v-2.34c-2.82.39-3.74,1.19-3.74,2.2s.59,1.29,1.54,1.29A3,3,0,0,0,115.47,376Z" transform="translate(0 -4.82)"/><path class="cls-5" d="M121.59,378.33l1.79-2.47a5.82,5.82,0,0,0,3.45,1.4c1.18,0,1.69-.45,1.69-1.15,0-.88-1.32-1.28-2.7-1.82-1.64-.64-3.55-1.73-3.55-3.94,0-2.49,2-4.19,5.12-4.19a7.61,7.61,0,0,1,4.72,1.7l-1.78,2.38a5,5,0,0,0-2.82-1.15c-1,0-1.53.41-1.53,1.07,0,.86,1.26,1.18,2.65,1.69,1.69.63,3.6,1.58,3.6,4s-1.91,4.32-5.5,4.32A8.74,8.74,0,0,1,121.59,378.33Z" transform="translate(0 -4.82)"/><path class="cls-5" d="M134.73,375V369.6H132.9v-3l2-.16.47-3.55h3.28v3.55h3.21v3.12H138.7V375c0,1.52.69,2.13,1.73,2.13a3.94,3.94,0,0,0,1.28-.26l.62,2.88a9.24,9.24,0,0,1-3,.49C136.05,380.2,134.73,378.11,134.73,375Z" transform="translate(0 -4.82)"/><path class="cls-5" d="M144.23,362.45a2.31,2.31,0,1,1,2.3,2.07A2.11,2.11,0,0,1,144.23,362.45Zm.31,4h4v13.4h-4Z" transform="translate(0 -4.82)"/><path class="cls-5" d="M151.21,373.18a6.74,6.74,0,0,1,7-7,5.84,5.84,0,0,1,3.91,1.44l-1.87,2.55a2.74,2.74,0,0,0-1.82-.79c-1.91,0-3.13,1.51-3.13,3.82s1.27,3.82,3,3.82a4,4,0,0,0,2.41-1l1.56,2.59a6.73,6.73,0,0,1-4.42,1.6C154.09,380.2,151.21,377.63,151.21,373.18Z" transform="translate(0 -4.82)"/><path class="cls-5" d="M169.5,371.18c0-5.84,3.85-9.22,8.3-9.22a7.43,7.43,0,0,1,5.29,2.28l-2.1,2.55a4.42,4.42,0,0,0-3.1-1.4c-2.41,0-4.32,2.13-4.32,5.66s1.68,5.71,4.26,5.71a4.65,4.65,0,0,0,3.44-1.64l2.09,2.5a7.23,7.23,0,0,1-5.68,2.58C173.22,380.2,169.5,377.11,169.5,371.18Z" transform="translate(0 -4.82)"/><path class="cls-5" d="M184.93,373.18c0-4.45,3.14-7,6.53-7s6.52,2.57,6.52,7-3.14,7-6.52,7S184.93,377.63,184.93,373.18Zm9,0c0-2.31-.81-3.82-2.45-3.82s-2.46,1.51-2.46,3.82.81,3.82,2.46,3.82S193.91,375.5,193.91,373.18Z" transform="translate(0 -4.82)"/><path class="cls-5" d="M200.7,366.48h3.23l.29,1.72h.1a5.62,5.62,0,0,1,4.06-2,3.69,3.69,0,0,1,3.69,2.25c1.18-1.23,2.44-2.25,4.21-2.25,2.89,0,4.19,2,4.19,5.4v8.32h-4v-7.81c0-1.93-.53-2.53-1.66-2.53a3.44,3.44,0,0,0-2.28,1.3v9h-4v-7.81c0-1.93-.53-2.53-1.66-2.53a3.46,3.46,0,0,0-2.28,1.3v9h-4Z" transform="translate(0 -4.82)"/><path class="cls-5" d="M223.83,366.48h3.24l.29,1.32h.1a5.91,5.91,0,0,1,3.81-1.64c3.24,0,5.23,2.68,5.23,6.81,0,4.59-2.74,7.23-5.64,7.23a4.7,4.7,0,0,1-3.19-1.4l.13,2.12v3.92h-4Zm8.6,6.53c0-2.4-.74-3.6-2.33-3.6a3.09,3.09,0,0,0-2.3,1.2v5.49a3.2,3.2,0,0,0,2.14.85C231.32,377,232.43,375.78,232.43,373Z" transform="translate(0 -4.82)"/><path class="cls-5" d="M239.18,374.8v-8.32h4v7.81c0,1.93.51,2.53,1.66,2.53a2.74,2.74,0,0,0,2.38-1.47v-8.87h4v13.4h-3.24l-.29-1.86h-.09a5.25,5.25,0,0,1-4.21,2.18C240.42,380.2,239.18,378.14,239.18,374.8Z" transform="translate(0 -4.82)"/><path class="cls-5" d="M255.18,375V369.6h-1.83v-3l2.05-.16.46-3.55h3.29v3.55h3.21v3.12h-3.21V375c0,1.52.68,2.13,1.73,2.13a3.87,3.87,0,0,0,1.27-.26l.63,2.88a9.31,9.31,0,0,1-3,.49C256.49,380.2,255.18,378.11,255.18,375Z" transform="translate(0 -4.82)"/><path class="cls-5" d="M263.72,373.18c0-4.34,3.1-7,6.31-7,3.82,0,5.71,2.77,5.71,6.43a8.57,8.57,0,0,1-.17,1.75h-8a3.24,3.24,0,0,0,3.48,2.83,5.55,5.55,0,0,0,2.89-.87l1.31,2.39a8.7,8.7,0,0,1-4.75,1.51C266.67,380.2,263.72,377.62,263.72,373.18Zm8.63-1.46c0-1.48-.64-2.54-2.23-2.54a2.66,2.66,0,0,0-2.6,2.54Z" transform="translate(0 -4.82)"/><path class="cls-5" d="M283.38,371.18c0-5.84,3.86-9.22,8.3-9.22a7.45,7.45,0,0,1,5.3,2.28l-2.1,2.55a4.42,4.42,0,0,0-3.11-1.4c-2.41,0-4.31,2.13-4.31,5.66s1.68,5.71,4.25,5.71a4.63,4.63,0,0,0,3.44-1.64l2.1,2.5a7.24,7.24,0,0,1-5.68,2.58C287.11,380.2,283.38,377.11,283.38,371.18Z" transform="translate(0 -4.82)"/><path class="cls-5" d="M299.6,375.71V361h4v14.92c0,.85.4,1.12.72,1.12a1.61,1.61,0,0,0,.49-.06l.47,2.93a5.09,5.09,0,0,1-2,.33C300.53,380.2,299.6,378.42,299.6,375.71Z" transform="translate(0 -4.82)"/><path class="cls-5" d="M306.54,373.18c0-4.45,3.13-7,6.52-7s6.53,2.57,6.53,7-3.14,7-6.53,7S306.54,377.63,306.54,373.18Zm9,0c0-2.31-.82-3.82-2.46-3.82s-2.45,1.51-2.45,3.82.81,3.82,2.45,3.82S315.52,375.5,315.52,373.18Z" transform="translate(0 -4.82)"/><path class="cls-5" d="M322.18,374.8v-8.32h4v7.81c0,1.93.52,2.53,1.67,2.53a2.76,2.76,0,0,0,2.38-1.47v-8.87h4v13.4h-3.24l-.29-1.86h-.1a5.22,5.22,0,0,1-4.2,2.18C323.42,380.2,322.18,378.14,322.18,374.8Z" transform="translate(0 -4.82)"/><path class="cls-5" d="M337,373.18c0-4.38,2.73-7,5.55-7a4.42,4.42,0,0,1,3.29,1.4l-.15-2V361h4v18.92h-3.24l-.28-1.33H346a5.34,5.34,0,0,1-3.56,1.65C339.1,380.2,337,377.56,337,373.18Zm8.69,2.57v-5.5a3.27,3.27,0,0,0-2.21-.84c-1.29,0-2.41,1.18-2.41,3.73s.9,3.81,2.44,3.81A2.54,2.54,0,0,0,345.64,375.75Z" transform="translate(0 -4.82)"/><path class="cls-5" d="M188.09,404.77a22.73,22.73,0,0,1,3.57-12.33l2.48,1a23.83,23.83,0,0,0,0,22.6l-2.48,1A22.79,22.79,0,0,1,188.09,404.77Z" transform="translate(0 -4.82)"/><path class="cls-5" d="M197.52,394.68h11V398h-7v3.53h6v3.34h-6v4.05h7.32v3.34H197.52Z" transform="translate(0 -4.82)"/><path class="cls-5" d="M211.48,403.58c0-5.84,3.86-9.22,8.3-9.22a7.45,7.45,0,0,1,5.3,2.28l-2.1,2.55a4.42,4.42,0,0,0-3.11-1.4c-2.41,0-4.31,2.13-4.31,5.66s1.68,5.72,4.25,5.72a4.64,4.64,0,0,0,3.44-1.65l2.1,2.5a7.24,7.24,0,0,1-5.68,2.58C215.21,412.6,211.48,409.51,211.48,403.58Z" transform="translate(0 -4.82)"/><path class="cls-5" d="M227,410c4.36-4.12,7.44-7.05,7.44-9.51a2.29,2.29,0,0,0-2.43-2.57,4.43,4.43,0,0,0-3.05,1.75l-2.15-2.15a7.25,7.25,0,0,1,5.74-2.71c3.38,0,5.69,2.16,5.69,5.46,0,2.89-2.7,6-5.51,8.87.89-.1,2.08-.2,2.87-.2H239v3.34H227Z" transform="translate(0 -4.82)"/><path class="cls-5" d="M241.5,416.07a23.83,23.83,0,0,0,0-22.6l2.49-1a23.15,23.15,0,0,1,0,24.67Z" transform="translate(0 -4.82)"/><path class="cls-5" d="M126.4,435.83c0-5.71,3.37-9.2,7.87-9.2a6.6,6.6,0,0,1,4.87,2.19l-1.24,1.47a4.79,4.79,0,0,0-3.59-1.67c-3.35,0-5.58,2.74-5.58,7.15s2.13,7.25,5.49,7.25a5.31,5.31,0,0,0,4.1-2l1.24,1.41a6.82,6.82,0,0,1-5.44,2.56C129.71,445,126.4,441.59,126.4,435.83Z" transform="translate(0 -4.82)"/><path class="cls-5" d="M142.64,442v-16.6h2.22V442.2c0,.68.3.95.62.95a2.08,2.08,0,0,0,.49,0l.3,1.69A3.46,3.46,0,0,1,145,445C143.33,445,142.64,443.94,142.64,442Z" transform="translate(0 -4.82)"/><path class="cls-5" d="M148.55,438.13c0-4.38,2.87-6.9,6.08-6.9s6.08,2.52,6.08,6.9-2.86,6.87-6.08,6.87S148.55,442.48,148.55,438.13Zm9.87,0c0-3-1.53-5.05-3.79-5.05s-3.78,2.05-3.78,5.05,1.53,5,3.78,5S158.42,441.14,158.42,438.13Z" transform="translate(0 -4.82)"/><path class="cls-5" d="M164,439.87v-8.32h2.22v8c0,2.44.74,3.49,2.48,3.49,1.34,0,2.27-.66,3.51-2.21v-9.31h2.22v13.12h-1.83l-.19-2.05h-.07A5.59,5.59,0,0,1,168,445C165.23,445,164,443.21,164,439.87Z" transform="translate(0 -4.82)"/><path class="cls-5" d="M177.91,438.13c0-4.25,2.69-6.9,5.68-6.9a5.36,5.36,0,0,1,3.68,1.52l-.1-2.25v-5.06h2.22v19.23h-1.83l-.19-1.54h-.07a5.81,5.81,0,0,1-4,1.87C180,445,177.91,442.5,177.91,438.13Zm9.26,3.21v-6.88a4.59,4.59,0,0,0-3.2-1.36c-2.09,0-3.76,2-3.76,5,0,3.15,1.3,5,3.6,5A4.52,4.52,0,0,0,187.17,441.34Z" transform="translate(0 -4.82)"/><path class="cls-5" d="M198.41,435.83c0-5.71,3.37-9.2,7.86-9.2a6.63,6.63,0,0,1,4.88,2.19l-1.24,1.47a4.79,4.79,0,0,0-3.6-1.67c-3.34,0-5.57,2.74-5.57,7.15s2.13,7.25,5.48,7.25a5.32,5.32,0,0,0,4.11-2l1.24,1.41a6.83,6.83,0,0,1-5.44,2.56C201.72,445,198.41,441.59,198.41,435.83Z" transform="translate(0 -4.82)"/><path class="cls-5" d="M213.68,438.13c0-4.38,2.86-6.9,6.08-6.9s6.08,2.52,6.08,6.9S223,445,219.76,445,213.68,442.48,213.68,438.13Zm9.86,0c0-3-1.53-5.05-3.78-5.05s-3.79,2.05-3.79,5.05,1.53,5,3.79,5S223.54,441.14,223.54,438.13Z" transform="translate(0 -4.82)"/><path class="cls-5" d="M229.28,431.55h1.84l.19,1.91h.07a5.84,5.84,0,0,1,4.08-2.23,3.47,3.47,0,0,1,3.63,2.5c1.36-1.47,2.73-2.5,4.32-2.5,2.7,0,4,1.78,4,5.13v8.31h-2.22v-8c0-2.45-.77-3.49-2.44-3.49-1,0-2.07.66-3.29,2v9.5h-2.22v-8c0-2.45-.77-3.49-2.44-3.49-1,0-2.07.66-3.29,2v9.5h-2.22Z" transform="translate(0 -4.82)"/><path class="cls-5" d="M251.67,431.55h1.83l.19,1.52h.07a6.89,6.89,0,0,1,4.19-1.84c3.38,0,5.2,2.63,5.2,6.69,0,4.47-2.69,7.08-5.69,7.08a6,6,0,0,1-3.63-1.52l.06,2.29v4.44h-2.22Zm9.18,6.39c0-2.9-1-4.84-3.46-4.84a5.37,5.37,0,0,0-3.5,1.79v6.88a5.15,5.15,0,0,0,3.19,1.36C259.25,443.13,260.85,441.17,260.85,437.94Z" transform="translate(0 -4.82)"/><path class="cls-5" d="M266.48,439.87v-8.32h2.22v8c0,2.44.73,3.49,2.47,3.49,1.34,0,2.27-.66,3.51-2.21v-9.31h2.22v13.12h-1.83l-.19-2.05h-.07a5.59,5.59,0,0,1-4.33,2.38C267.72,445,266.48,443.21,266.48,439.87Z" transform="translate(0 -4.82)"/><path class="cls-5" d="M281.73,440.62v-7.26h-2v-1.68l2.05-.13.26-3.68H284v3.68h3.55v1.81H284v7.3c0,1.6.52,2.53,2,2.53a4.5,4.5,0,0,0,1.49-.35l.43,1.67a7.84,7.84,0,0,1-2.43.49C282.67,445,281.73,443.23,281.73,440.62Z" transform="translate(0 -4.82)"/><path class="cls-5" d="M289.11,438.13c0-4.27,2.88-6.9,5.9-6.9,3.35,0,5.24,2.4,5.24,6.16a6.48,6.48,0,0,1-.11,1.26h-8.83c.16,2.78,1.86,4.58,4.36,4.58a5.73,5.73,0,0,0,3.26-1.05l.8,1.46a7.74,7.74,0,0,1-4.34,1.36C291.9,445,289.11,442.44,289.11,438.13Zm9.18-1.07c0-2.63-1.19-4.06-3.24-4.06-1.84,0-3.49,1.48-3.76,4.06Z" transform="translate(0 -4.82)"/><path class="cls-5" d="M303.48,431.55h1.83l.19,2.39h.07c.92-1.66,2.26-2.71,3.74-2.71a3,3,0,0,1,1.4.27l-.42,1.95a3.72,3.72,0,0,0-1.27-.22c-1.11,0-2.43.8-3.32,3v8.42h-2.22Z" transform="translate(0 -4.82)"/><path class="cls-5" d="M153.21,179.76h-4.84v-3.33H162v3.33h-4.84V194h-4Z" transform="translate(0 -4.82)"/><path class="cls-5" d="M164.45,175.11h4v4.62l-.18,2.42a6.05,6.05,0,0,1,4.13-1.85c2.92,0,4.16,2.06,4.16,5.41V194h-4v-7.81c0-1.92-.52-2.53-1.66-2.53a3.42,3.42,0,0,0-2.48,1.3v9h-4Z" transform="translate(0 -4.82)"/><path class="cls-5" d="M179.09,187.33c0-4.35,3.1-7,6.31-7,3.82,0,5.71,2.78,5.71,6.43a8.49,8.49,0,0,1-.17,1.75h-8a3.24,3.24,0,0,0,3.48,2.84,5.56,5.56,0,0,0,2.89-.88l1.31,2.39a8.7,8.7,0,0,1-4.75,1.51C182,194.34,179.09,191.76,179.09,187.33Zm8.63-1.47c0-1.47-.64-2.53-2.23-2.53a2.65,2.65,0,0,0-2.6,2.53Z" transform="translate(0 -4.82)"/><path class="cls-5" d="M199.58,176.43h4v14.25h6.94V194H199.58Z" transform="translate(0 -4.82)"/><path class="cls-5" d="M212.93,176.59a2.31,2.31,0,1,1,2.3,2.08A2.11,2.11,0,0,1,212.93,176.59Zm.31,4h4V194h-4Z" transform="translate(0 -4.82)"/><path class="cls-5" d="M221.23,189.15v-5.41H219.4v-3l2-.15.46-3.56h3.28v3.56h3.21v3.11h-3.21v5.36c0,1.52.69,2.13,1.74,2.13a4.15,4.15,0,0,0,1.27-.25l.63,2.88a9.7,9.7,0,0,1-3,.48C222.54,194.34,221.23,192.25,221.23,189.15Z" transform="translate(0 -4.82)"/><path class="cls-5" d="M231,189.15v-5.41H229.2v-3l2.05-.15.46-3.56H235v3.56h3.21v3.11H235v5.36c0,1.52.69,2.13,1.74,2.13A4.15,4.15,0,0,0,238,191l.63,2.88a9.64,9.64,0,0,1-3,.48C232.34,194.34,231,192.25,231,189.15Z" transform="translate(0 -4.82)"/><path class="cls-5" d="M240.83,189.86V175.11h4V190c0,.85.39,1.12.72,1.12a1.81,1.81,0,0,0,.48,0l.48,2.92a5.11,5.11,0,0,1-2,.33C241.76,194.34,240.83,192.57,240.83,189.86Z" transform="translate(0 -4.82)"/><path class="cls-5" d="M247.77,187.33c0-4.35,3.1-7,6.32-7,3.82,0,5.7,2.78,5.7,6.43a8.64,8.64,0,0,1-.16,1.75h-8a3.22,3.22,0,0,0,3.47,2.84,5.6,5.6,0,0,0,2.9-.88l1.31,2.39a8.7,8.7,0,0,1-4.75,1.51C250.73,194.34,247.77,191.76,247.77,187.33Zm8.64-1.47c0-1.47-.65-2.53-2.23-2.53a2.66,2.66,0,0,0-2.61,2.53Z" transform="translate(0 -4.82)"/><path class="cls-5" d="M261.35,192.47l1.79-2.47a5.78,5.78,0,0,0,3.45,1.41c1.18,0,1.7-.45,1.7-1.15,0-.89-1.33-1.29-2.71-1.83-1.64-.63-3.54-1.72-3.54-3.93,0-2.5,2-4.2,5.11-4.2a7.61,7.61,0,0,1,4.72,1.7l-1.77,2.38a5,5,0,0,0-2.82-1.14c-1,0-1.53.4-1.53,1.07,0,.85,1.25,1.18,2.64,1.68,1.69.63,3.61,1.59,3.61,4s-1.92,4.32-5.5,4.32A8.68,8.68,0,0,1,261.35,192.47Z" transform="translate(0 -4.82)"/><path class="cls-5" d="M274.5,189.15v-5.41h-1.83v-3l2.05-.15.46-3.56h3.28v3.56h3.21v3.11h-3.21v5.36c0,1.52.69,2.13,1.74,2.13a4.15,4.15,0,0,0,1.27-.25l.63,2.88a9.64,9.64,0,0,1-3,.48C275.81,194.34,274.5,192.25,274.5,189.15Z" transform="translate(0 -4.82)"/><path class="cls-5" d="M147.37,223.56l2.7-2a2.86,2.86,0,0,0,2.45,1.76c1.42,0,2.19-.73,2.19-3.07V208.83h4v11.74c0,3.38-1.76,6.17-5.65,6.17A6,6,0,0,1,147.37,223.56Z" transform="translate(0 -4.82)"/><path class="cls-5" d="M162.3,221.34V213h4v7.8c0,1.93.52,2.53,1.67,2.53a2.76,2.76,0,0,0,2.38-1.47V213h4v13.39H171l-.29-1.86h-.1a5.19,5.19,0,0,1-4.2,2.18C163.54,226.74,162.3,224.69,162.3,221.34Z" transform="translate(0 -4.82)"/><path class="cls-5" d="M177.76,213H181l.28,1.32h.1a6,6,0,0,1,3.81-1.65c3.25,0,5.23,2.68,5.23,6.81,0,4.6-2.73,7.23-5.63,7.23a4.69,4.69,0,0,1-3.2-1.39l.14,2.11v3.93h-4Zm8.59,6.53c0-2.41-.74-3.61-2.32-3.61a3.05,3.05,0,0,0-2.3,1.2v5.5a3.18,3.18,0,0,0,2.13.85C185.25,223.5,186.35,222.33,186.35,219.56Z" transform="translate(0 -4.82)"/><path class="cls-5" d="M192.61,231.39l.7-3a3.76,3.76,0,0,0,.91.17,2.3,2.3,0,0,0,2.34-1.76l.2-.69L191.59,213h4l1.91,5.76c.39,1.21.71,2.48,1.06,3.79h.11c.3-1.26.59-2.53.93-3.79l1.62-5.76H205l-4.65,13.53c-1.27,3.36-2.7,5.1-5.84,5.1A6.16,6.16,0,0,1,192.61,231.39Z" transform="translate(0 -4.82)"/><path class="cls-5" d="M207.62,221.55v-5.41h-1.83v-3l2.05-.15.46-3.56h3.29V213h3.21v3.11h-3.21v5.36c0,1.52.68,2.13,1.73,2.13a4.15,4.15,0,0,0,1.27-.25l.63,2.88a9.64,9.64,0,0,1-3,.48C208.93,226.74,207.62,224.65,207.62,221.55Z" transform="translate(0 -4.82)"/><path class="cls-5" d="M216.16,219.73c0-4.35,3.1-7,6.31-7,3.82,0,5.71,2.78,5.71,6.43a8.49,8.49,0,0,1-.17,1.75h-8a3.23,3.23,0,0,0,3.47,2.84,5.57,5.57,0,0,0,2.9-.88l1.31,2.39a8.7,8.7,0,0,1-4.75,1.51C219.11,226.74,216.16,224.16,216.16,219.73Zm8.63-1.47c0-1.47-.64-2.53-2.23-2.53a2.65,2.65,0,0,0-2.6,2.53Z" transform="translate(0 -4.82)"/><path class="cls-5" d="M230.92,213h3.24l.28,2.34h.1a4.54,4.54,0,0,1,3.81-2.67,3.7,3.7,0,0,1,1.59.27l-.66,3.43a5.31,5.31,0,0,0-1.44-.22c-1,0-2.24.65-3,2.48v7.76h-4Z" transform="translate(0 -4.82)"/><path class="cls-5" d="M242,208.83h4v6.78h6.07v-6.78h4v17.59h-4v-7.35H246v7.35h-4Z" transform="translate(0 -4.82)"/><path class="cls-5" d="M259.74,221.34V213h4v7.8c0,1.93.51,2.53,1.66,2.53a2.74,2.74,0,0,0,2.38-1.47V213h4v13.39h-3.24l-.29-1.86h-.09a5.23,5.23,0,0,1-4.21,2.18C261,226.74,259.74,224.69,259.74,221.34Z" transform="translate(0 -4.82)"/><path class="cls-5" d="M278.73,225h-.1l-.33,1.43h-3.1V207.51h4v4.62l-.1,2.06a5.4,5.4,0,0,1,3.54-1.49c3.25,0,5.25,2.68,5.25,6.79,0,4.62-2.73,7.25-5.63,7.25A4.88,4.88,0,0,1,278.73,225Zm5.07-5.43c0-2.41-.75-3.61-2.33-3.61a3,3,0,0,0-2.3,1.2v5.5a3.18,3.18,0,0,0,2.13.85C282.69,223.5,283.8,222.33,283.8,219.56Z" transform="translate(0 -4.82)"/><path class="cls-5" d="M180,251.31A22.75,22.75,0,0,1,183.57,239l2.49,1a23.81,23.81,0,0,0,0,22.59l-2.49,1A22.75,22.75,0,0,1,180,251.31Z" transform="translate(0 -4.82)"/><path class="cls-5" d="M192.87,244.56H188v-3.33h13.66v3.33h-4.84v14.26h-4Z" transform="translate(0 -4.82)"/><path class="cls-5" d="M204.44,241.23h4v14.25h6.94v3.34H204.44Z" transform="translate(0 -4.82)"/><path class="cls-5" d="M216.78,256l2.71-2a2.86,2.86,0,0,0,2.45,1.76c1.42,0,2.19-.73,2.19-3.07V241.23h4V253c0,3.38-1.75,6.17-5.64,6.17A6,6,0,0,1,216.78,256Z" transform="translate(0 -4.82)"/><path class="cls-5" d="M232.17,241.23h4V248h6.07v-6.78h4v17.59h-4v-7.35h-6.07v7.35h-4Z" transform="translate(0 -4.82)"/><path class="cls-5" d="M249.59,262.61a23.81,23.81,0,0,0,0-22.59l2.49-1a23.15,23.15,0,0,1,0,24.67Z" transform="translate(0 -4.82)"/><path class="cls-5" d="M124.71,273.5H127v7.42h8.24V273.5h2.25v17.72H135.2v-8.33H127v8.33h-2.25Z" transform="translate(0 -4.82)"/><path class="cls-5" d="M141.93,286.41V278.1h2.22v8c0,2.44.73,3.48,2.47,3.48,1.34,0,2.27-.66,3.51-2.21v-9.3h2.22v13.12h-1.83l-.19-2.06h-.07a5.57,5.57,0,0,1-4.33,2.38C143.17,291.54,141.93,289.76,141.93,286.41Z" transform="translate(0 -4.82)"/><path class="cls-5" d="M158.84,289.86h-.07l-.21,1.36h-1.77V272H159v5.26l-.07,2.35a6.66,6.66,0,0,1,4.12-1.83c3.39,0,5.21,2.64,5.21,6.68,0,4.48-2.68,7.09-5.68,7.09A5.86,5.86,0,0,1,158.84,289.86Zm7.14-5.38c0-2.9-1-4.84-3.46-4.84a5.33,5.33,0,0,0-3.51,1.79v6.88a5,5,0,0,0,3.19,1.36C164.38,289.67,166,287.72,166,284.48Z" transform="translate(0 -4.82)"/><path class="cls-5" d="M177.22,273.5h4.43c5.45,0,8.37,3.17,8.37,8.8s-2.92,8.92-8.27,8.92h-4.53Zm4.26,15.87c4.14,0,6.21-2.59,6.21-7.07s-2.07-6.95-6.21-6.95h-2v14Z" transform="translate(0 -4.82)"/><path class="cls-5" d="M192.64,284.67c0-4.26,2.88-6.9,5.9-6.9,3.35,0,5.24,2.41,5.24,6.16a6.41,6.41,0,0,1-.11,1.26h-8.83c.16,2.78,1.86,4.58,4.36,4.58a5.66,5.66,0,0,0,3.26-1l.8,1.46a7.74,7.74,0,0,1-4.34,1.36C195.43,291.54,192.64,289,192.64,284.67Zm9.17-1.07c0-2.63-1.18-4.06-3.23-4.06-1.84,0-3.49,1.48-3.76,4.06Z" transform="translate(0 -4.82)"/><path class="cls-5" d="M207,278.1h1.83l.19,1.51h.07a7,7,0,0,1,4.19-1.84c3.39,0,5.2,2.64,5.2,6.69,0,4.47-2.69,7.08-5.68,7.08a5.91,5.91,0,0,1-3.64-1.52l.06,2.29v4.44H207Zm9.19,6.38c0-2.9-1-4.84-3.46-4.84a5.39,5.39,0,0,0-3.51,1.79v6.88a5.11,5.11,0,0,0,3.19,1.36C214.59,289.67,216.2,287.72,216.2,284.48Z" transform="translate(0 -4.82)"/><path class="cls-5" d="M221.89,288.58V272h2.22v16.76c0,.67.29.94.61.94a2.08,2.08,0,0,0,.49-.05l.3,1.69a3.38,3.38,0,0,1-1.28.21C222.57,291.54,221.89,290.48,221.89,288.58Z" transform="translate(0 -4.82)"/><path class="cls-5" d="M227.8,284.67c0-4.37,2.86-6.9,6.08-6.9s6.08,2.53,6.08,6.9-2.87,6.87-6.08,6.87S227.8,289,227.8,284.67Zm9.86,0c0-3-1.53-5.05-3.78-5.05s-3.79,2.05-3.79,5.05,1.53,5,3.79,5S237.66,287.68,237.66,284.67Z" transform="translate(0 -4.82)"/><path class="cls-5" d="M242,296.6l.43-1.77a3.41,3.41,0,0,0,1,.2c1.48,0,2.42-1.19,3-2.82l.3-1-5.26-13.15h2.28l2.68,7.26c.41,1.14.85,2.48,1.28,3.7h.11c.37-1.2.74-2.54,1.1-3.7l2.34-7.26h2.18l-4.95,14.2c-.92,2.6-2.28,4.57-4.91,4.57A4.08,4.08,0,0,1,242,296.6Z" transform="translate(0 -4.82)"/><path class="cls-5" d="M255.91,278.1h1.83l.19,1.9H258a5.84,5.84,0,0,1,4.08-2.23,3.47,3.47,0,0,1,3.63,2.5c1.36-1.47,2.73-2.5,4.32-2.5,2.7,0,4,1.79,4,5.14v8.31h-2.22v-8c0-2.44-.78-3.49-2.45-3.49-1,0-2.07.67-3.28,2v9.5h-2.22v-8c0-2.44-.78-3.49-2.45-3.49-1,0-2.07.67-3.28,2v9.5h-2.22Z" transform="translate(0 -4.82)"/><path class="cls-5" d="M277.31,284.67c0-4.26,2.88-6.9,5.9-6.9,3.35,0,5.24,2.41,5.24,6.16a6.41,6.41,0,0,1-.11,1.26h-8.83c.16,2.78,1.86,4.58,4.36,4.58a5.66,5.66,0,0,0,3.26-1l.8,1.46a7.74,7.74,0,0,1-4.34,1.36C280.1,291.54,277.31,289,277.31,284.67Zm9.18-1.07c0-2.63-1.19-4.06-3.24-4.06-1.84,0-3.49,1.48-3.76,4.06Z" transform="translate(0 -4.82)"/><path class="cls-5" d="M291.68,278.1h1.83l.19,1.89h.08a6.25,6.25,0,0,1,4.4-2.22c2.76,0,4,1.79,4,5.14v8.31H300v-8c0-2.44-.74-3.49-2.47-3.49-1.34,0-2.27.69-3.59,2v9.5h-2.22Z" transform="translate(0 -4.82)"/><path class="cls-5" d="M306.84,287.16v-7.25h-1.95v-1.68l2.05-.13.26-3.68h1.86v3.68h3.55v1.81h-3.55v7.29c0,1.6.51,2.53,2,2.53a4.27,4.27,0,0,0,1.49-.35l.43,1.68a7.89,7.89,0,0,1-2.43.48C307.78,291.54,306.84,289.77,306.84,287.16Z" transform="translate(0 -4.82)"/><path class="cls-5" d="M179,14.26V4.82h4v9.84c0,3.45,1.08,4.64,3,4.64s3.12-1.19,3.12-4.64V4.82h3.83v9.44c0,5.9-2.4,8.47-7,8.47S179,20.16,179,14.26Z" transform="translate(0 -4.82)"/><path class="cls-5" d="M198.38,20.86l1.78-2.47a5.83,5.83,0,0,0,3.46,1.41c1.18,0,1.69-.45,1.69-1.15,0-.89-1.33-1.29-2.71-1.83-1.64-.63-3.54-1.72-3.54-3.93,0-2.5,2-4.2,5.12-4.2a7.61,7.61,0,0,1,4.72,1.7l-1.78,2.38a5,5,0,0,0-2.82-1.14c-1,0-1.53.4-1.53,1.07,0,.85,1.25,1.18,2.64,1.68,1.7.63,3.61,1.59,3.61,4s-1.91,4.31-5.5,4.31A8.63,8.63,0,0,1,198.38,20.86Z" transform="translate(0 -4.82)"/><path class="cls-5" d="M213.85,15.72c0-4.35,3.1-7,6.32-7,3.81,0,5.7,2.78,5.7,6.43a8.69,8.69,0,0,1-.17,1.76h-8a3.24,3.24,0,0,0,3.48,2.83,5.56,5.56,0,0,0,2.89-.88l1.31,2.4a8.69,8.69,0,0,1-4.75,1.5C216.81,22.73,213.85,20.15,213.85,15.72Zm8.63-1.47c0-1.47-.64-2.53-2.22-2.53a2.66,2.66,0,0,0-2.61,2.53Z" transform="translate(0 -4.82)"/><path class="cls-5" d="M231.72,9H235l.28,2.34h.1a4.53,4.53,0,0,1,3.8-2.67,3.75,3.75,0,0,1,1.6.27l-.66,3.43a5.37,5.37,0,0,0-1.44-.22c-1,0-2.24.65-2.95,2.48v7.76h-4Z" transform="translate(0 -4.82)"/><path class="cls-5" d="M244.17,20.86,246,18.39a5.83,5.83,0,0,0,3.46,1.41c1.18,0,1.69-.45,1.69-1.15,0-.89-1.33-1.29-2.7-1.83-1.65-.63-3.55-1.72-3.55-3.93,0-2.5,2-4.2,5.12-4.2a7.61,7.61,0,0,1,4.72,1.7l-1.78,2.38a5,5,0,0,0-2.82-1.14c-1,0-1.53.4-1.53,1.07,0,.85,1.26,1.18,2.64,1.68,1.7.63,3.61,1.59,3.61,4s-1.91,4.31-5.5,4.31A8.63,8.63,0,0,1,244.17,20.86Z" transform="translate(0 -4.82)"/><path class="cls-5" d="M530.52,194.73c0-5.84,3.88-9.22,8.58-9.22a7.65,7.65,0,0,1,5.55,2.28l-2.1,2.55a4.56,4.56,0,0,0-3.32-1.4c-2.71,0-4.63,2.13-4.63,5.65s1.64,5.72,4.95,5.72a3.17,3.17,0,0,0,1.86-.52v-3H538.5V193.5h6.44v8.12a8.51,8.51,0,0,1-5.8,2.13C534.29,203.75,530.52,200.65,530.52,194.73Z" transform="translate(0 -4.82)"/><path class="cls-5" d="M547.94,186a2.31,2.31,0,1,1,2.3,2.07A2.12,2.12,0,0,1,547.94,186Zm.31,4h4v13.39h-4Z" transform="translate(0 -4.82)"/><path class="cls-5" d="M556.24,198.55v-5.41h-1.83v-3l2.05-.15.46-3.56h3.29V190h3.21v3.11h-3.21v5.37c0,1.51.69,2.12,1.73,2.12a3.88,3.88,0,0,0,1.27-.25l.63,2.88a9.31,9.31,0,0,1-3,.49C557.55,203.75,556.24,201.66,556.24,198.55Z" transform="translate(0 -4.82)"/><path class="cls-5" d="M566.37,185.83h4v6.78h6.07v-6.78h4v17.59h-4v-7.34h-6.07v7.34h-4Z" transform="translate(0 -4.82)"/><path class="cls-5" d="M584.11,198.34V190h4v7.81c0,1.92.52,2.53,1.66,2.53a2.76,2.76,0,0,0,2.39-1.48V190h4v13.39h-3.23l-.29-1.86h-.1a5.23,5.23,0,0,1-4.2,2.19C585.36,203.75,584.11,201.69,584.11,198.34Z" transform="translate(0 -4.82)"/><path class="cls-5" d="M603.11,202H603l-.33,1.43h-3.1V184.51h4v4.62l-.09,2.06a5.42,5.42,0,0,1,3.54-1.48c3.24,0,5.25,2.68,5.25,6.78,0,4.62-2.74,7.26-5.63,7.26A4.87,4.87,0,0,1,603.11,202Zm5.06-5.43c0-2.4-.74-3.61-2.32-3.61a3.11,3.11,0,0,0-2.31,1.2v5.5a3.2,3.2,0,0,0,2.14.85C607.06,200.5,608.17,199.33,608.17,196.56Z" transform="translate(0 -4.82)"/><path class="cls-5" d="M457.57,233.52l1.35-1.55a6.91,6.91,0,0,0,4.89,2.19c2.32,0,3.7-1.15,3.7-2.87s-1.28-2.39-3-3.12L462,227.05c-1.65-.71-3.59-2-3.59-4.57s2.36-4.7,5.58-4.7a7.32,7.32,0,0,1,5.22,2.2l-1.2,1.45a5.63,5.63,0,0,0-4-1.66c-2,0-3.3,1-3.3,2.58s1.54,2.35,2.93,2.93l2.52,1.1c2.05.88,3.65,2.1,3.65,4.73,0,2.8-2.31,5-6,5A8.52,8.52,0,0,1,457.57,233.52Z" transform="translate(0 -4.82)"/><path class="cls-5" d="M472.81,231.77v-7.26h-2v-1.68l2.06-.13.26-3.68H475v3.68h3.55v1.81H475v7.29c0,1.61.51,2.54,2,2.54a4.56,4.56,0,0,0,1.49-.35l.43,1.67a8,8,0,0,1-2.44.49C473.75,236.15,472.81,234.38,472.81,231.77Z" transform="translate(0 -4.82)"/><path class="cls-5" d="M480.19,229.28c0-4.38,2.86-6.9,6.08-6.9s6.08,2.52,6.08,6.9-2.86,6.87-6.08,6.87S480.19,233.62,480.19,229.28Zm9.87,0c0-3-1.53-5.05-3.79-5.05s-3.78,2-3.78,5.05,1.52,5,3.78,5S490.06,232.29,490.06,229.28Z" transform="translate(0 -4.82)"/><path class="cls-5" d="M495.8,222.7h1.83l.19,2.39h.08c.91-1.66,2.25-2.71,3.73-2.71a3,3,0,0,1,1.4.27l-.42,1.95a3.49,3.49,0,0,0-1.27-.22c-1.11,0-2.43.8-3.32,3v8.42H495.8Z" transform="translate(0 -4.82)"/><path class="cls-5" d="M503.71,232.42c0-2.86,2.46-4.29,8.06-4.9,0-1.69-.57-3.31-2.71-3.31a7.31,7.31,0,0,0-3.92,1.4l-.86-1.52a9.6,9.6,0,0,1,5.15-1.71c3.2,0,4.56,2.13,4.56,5.39v8h-1.84l-.19-1.57h-.07a7,7,0,0,1-4.34,1.9A3.57,3.57,0,0,1,503.71,232.42Zm8.06.2V229c-4.4.53-5.89,1.6-5.89,3.28,0,1.49,1,2.1,2.3,2.1A5.43,5.43,0,0,0,511.77,232.62Z" transform="translate(0 -4.82)"/><path class="cls-5" d="M517.13,238.34a3.68,3.68,0,0,1,1.93-3v-.11a2.43,2.43,0,0,1-1.18-2.15,3.16,3.16,0,0,1,1.45-2.44v-.11a4.55,4.55,0,0,1-1.7-3.52,4.65,4.65,0,0,1,4.92-4.67,5.34,5.34,0,0,1,1.85.32H529v1.71h-2.69a3.79,3.79,0,0,1,1.07,2.7,4.49,4.49,0,0,1-4.81,4.55,4.74,4.74,0,0,1-1.95-.44,1.9,1.9,0,0,0-.84,1.55c0,.83.54,1.42,2.3,1.42h2.55c3,0,4.59,1,4.59,3.13,0,2.44-2.58,4.54-6.64,4.54C519.35,241.86,517.13,240.6,517.13,238.34Zm9.89-.68c0-1.22-.92-1.63-2.64-1.63h-2.27a7.54,7.54,0,0,1-1.7-.2,2.74,2.74,0,0,0-1.34,2.2c0,1.41,1.42,2.3,3.8,2.3S527,239,527,237.66Zm-1.68-10.61a2.8,2.8,0,1,0-5.58,0,2.81,2.81,0,1,0,5.58,0Z" transform="translate(0 -4.82)"/><path class="cls-5" d="M530.38,229.28c0-4.27,2.88-6.9,5.9-6.9,3.35,0,5.24,2.4,5.24,6.15a6.59,6.59,0,0,1-.11,1.27h-8.83c.16,2.78,1.86,4.58,4.36,4.58a5.73,5.73,0,0,0,3.26-1l.8,1.46a7.73,7.73,0,0,1-4.33,1.36C533.17,236.15,530.38,233.59,530.38,229.28Zm9.18-1.07c0-2.63-1.19-4.06-3.24-4.06-1.84,0-3.49,1.48-3.76,4.06Z" transform="translate(0 -4.82)"/><path class="cls-5" d="M550,216.66h1.6l-7.2,23.48h-1.61Z" transform="translate(0 -4.82)"/><path class="cls-5" d="M554.41,218.11h4.43c5.45,0,8.37,3.16,8.37,8.79s-2.92,8.92-8.27,8.92h-4.53ZM558.67,234c4.14,0,6.21-2.59,6.21-7.07s-2.07-6.94-6.21-6.94h-2v14Z" transform="translate(0 -4.82)"/><path class="cls-5" d="M570.4,218.57a1.53,1.53,0,0,1,3.06,0,1.53,1.53,0,0,1-3.06,0Zm.4,4.13H573v13.12H570.8Z" transform="translate(0 -4.82)"/><path class="cls-5" d="M576,234.33l1.1-1.47a5.89,5.89,0,0,0,3.87,1.56c1.72,0,2.58-.92,2.58-2,0-1.35-1.55-1.95-3-2.49-1.84-.67-3.92-1.57-3.92-3.79s1.69-3.72,4.53-3.72a6.7,6.7,0,0,1,4.08,1.47l-1.06,1.42a5,5,0,0,0-3-1.16c-1.66,0-2.42.88-2.42,1.88,0,1.25,1.43,1.72,2.91,2.28,1.9.71,4,1.48,4,4,0,2.12-1.69,3.9-4.78,3.9A7.88,7.88,0,0,1,576,234.33Z" transform="translate(0 -4.82)"/><path class="cls-5" d="M588.61,231.77v-7.26h-2v-1.68l2.05-.13L589,219h1.86v3.68h3.55v1.81h-3.55v7.29c0,1.61.52,2.54,2,2.54a4.5,4.5,0,0,0,1.49-.35l.43,1.67a7.84,7.84,0,0,1-2.43.49C589.55,236.15,588.61,234.38,588.61,231.77Z" transform="translate(0 -4.82)"/><path class="cls-5" d="M597.35,222.7h1.83l.19,2.39h.07c.91-1.66,2.26-2.71,3.73-2.71a3,3,0,0,1,1.4.27l-.41,1.95a3.51,3.51,0,0,0-1.28-.22c-1.1,0-2.43.8-3.31,3v8.42h-2.22Z" transform="translate(0 -4.82)"/><path class="cls-5" d="M606.31,218.57a1.53,1.53,0,0,1,3.06,0,1.53,1.53,0,0,1-3.06,0Zm.4,4.13h2.22v13.12h-2.22Z" transform="translate(0 -4.82)"/><path class="cls-5" d="M615.41,234.47h-.07l-.21,1.35h-1.77V216.59h2.21v5.26l-.07,2.35a6.65,6.65,0,0,1,4.12-1.82c3.39,0,5.22,2.63,5.22,6.67,0,4.49-2.69,7.1-5.69,7.1A5.86,5.86,0,0,1,615.41,234.47Zm7.13-5.39c0-2.89-1-4.83-3.46-4.83a5.35,5.35,0,0,0-3.51,1.79v6.87a5.07,5.07,0,0,0,3.2,1.37C620.94,234.28,622.54,232.32,622.54,229.08Z" transform="translate(0 -4.82)"/><path class="cls-5" d="M628.11,231V222.7h2.22v8c0,2.44.74,3.49,2.48,3.49,1.34,0,2.27-.67,3.51-2.21V222.7h2.22v13.12H636.7l-.18-2h-.08a5.56,5.56,0,0,1-4.32,2.38C629.35,236.15,628.11,234.36,628.11,231Z" transform="translate(0 -4.82)"/><path class="cls-5" d="M643.36,231.77v-7.26h-2v-1.68l2.05-.13.27-3.68h1.85v3.68h3.56v1.81h-3.56v7.29c0,1.61.52,2.54,2,2.54a4.56,4.56,0,0,0,1.5-.35l.43,1.67a8,8,0,0,1-2.44.49C644.31,236.15,643.36,234.38,643.36,231.77Z" transform="translate(0 -4.82)"/><path class="cls-5" d="M651.69,218.57a1.54,1.54,0,0,1,3.07,0,1.54,1.54,0,0,1-3.07,0Zm.41,4.13h2.22v13.12H652.1Z" transform="translate(0 -4.82)"/><path class="cls-5" d="M657.77,229.28c0-4.38,2.86-6.9,6.08-6.9s6.08,2.52,6.08,6.9-2.87,6.87-6.08,6.87S657.77,233.62,657.77,229.28Zm9.86,0c0-3-1.53-5.05-3.78-5.05s-3.79,2-3.79,5.05,1.53,5,3.79,5S667.63,232.29,667.63,229.28Z" transform="translate(0 -4.82)"/><path class="cls-5" d="M673.37,222.7h1.84l.19,1.89h.07a6.26,6.26,0,0,1,4.4-2.21c2.77,0,4,1.78,4,5.13v8.31h-2.22v-8c0-2.45-.74-3.49-2.48-3.49-1.34,0-2.27.68-3.58,2v9.5h-2.23Z" transform="translate(0 -4.82)"/><path class="cls-5" d="M475.29,261.68c0-4.38,2.86-6.9,6.08-6.9s6.08,2.52,6.08,6.9-2.86,6.87-6.08,6.87S475.29,266,475.29,261.68Zm9.87,0c0-3-1.53-5.05-3.79-5.05s-3.79,2-3.79,5.05,1.53,5,3.79,5S485.16,264.69,485.16,261.68Z" transform="translate(0 -4.82)"/><path class="cls-5" d="M489.43,255.23l1.88-.13h4.9v1.81h-6.78Zm1.78-2.2c0-2.67,1.21-4.36,3.84-4.36a5.79,5.79,0,0,1,2.18.45l-.47,1.69a3.59,3.59,0,0,0-1.48-.33c-1.24,0-1.85.86-1.85,2.56v15.18h-2.22Z" transform="translate(0 -4.82)"/><path class="cls-5" d="M503.15,261.68c0-4.38,3-6.9,6.32-6.9a5.53,5.53,0,0,1,3.84,1.54l-1.14,1.47a3.75,3.75,0,0,0-2.6-1.16c-2.38,0-4.12,2-4.12,5.05s1.64,5,4.06,5a4.75,4.75,0,0,0,3.08-1.31l1,1.49a6.39,6.39,0,0,1-4.24,1.67C505.82,268.55,503.15,266,503.15,261.68Z" transform="translate(0 -4.82)"/><path class="cls-5" d="M516.44,265.59V249h2.22v16.76c0,.68.3.95.62.95a1.75,1.75,0,0,0,.49-.06l.3,1.7a3.68,3.68,0,0,1-1.28.21C517.12,268.55,516.44,267.48,516.44,265.59Z" transform="translate(0 -4.82)"/><path class="cls-5" d="M522.51,264.82c0-2.86,2.47-4.29,8.06-4.9,0-1.69-.57-3.31-2.71-3.31A7.2,7.2,0,0,0,524,258l-.87-1.52a9.66,9.66,0,0,1,5.15-1.71c3.21,0,4.56,2.13,4.56,5.39v8.05H531l-.19-1.57h-.07a7,7,0,0,1-4.34,1.9A3.57,3.57,0,0,1,522.51,264.82Zm8.06.2v-3.64c-4.4.53-5.88,1.6-5.88,3.28,0,1.49,1,2.1,2.3,2.1A5.41,5.41,0,0,0,530.57,265Z" transform="translate(0 -4.82)"/><path class="cls-5" d="M535.48,266.73l1.09-1.47a5.92,5.92,0,0,0,3.88,1.56c1.72,0,2.58-.92,2.58-2,0-1.35-1.55-1.95-3-2.49-1.83-.67-3.91-1.57-3.91-3.79s1.68-3.72,4.53-3.72a6.7,6.7,0,0,1,4.08,1.47l-1.07,1.42a5,5,0,0,0-3-1.16c-1.65,0-2.41.88-2.41,1.88,0,1.25,1.42,1.72,2.91,2.27,1.89.72,4,1.49,4,4,0,2.12-1.69,3.9-4.79,3.9A7.87,7.87,0,0,1,535.48,266.73Z" transform="translate(0 -4.82)"/><path class="cls-5" d="M546.79,266.73l1.1-1.47a5.89,5.89,0,0,0,3.87,1.56c1.72,0,2.58-.92,2.58-2,0-1.35-1.55-1.95-3-2.49-1.84-.67-3.92-1.57-3.92-3.79s1.69-3.72,4.53-3.72a6.7,6.7,0,0,1,4.08,1.47L555,257.67a5,5,0,0,0-3-1.16c-1.66,0-2.42.88-2.42,1.88,0,1.25,1.43,1.72,2.91,2.27,1.89.72,4,1.49,4,4,0,2.12-1.69,3.9-4.78,3.9A7.88,7.88,0,0,1,546.79,266.73Z" transform="translate(0 -4.82)"/><path class="cls-5" d="M565,255.1h1.83L567,257h.07a5.83,5.83,0,0,1,4.09-2.22,3.46,3.46,0,0,1,3.62,2.5c1.36-1.48,2.73-2.5,4.33-2.5,2.69,0,4,1.78,4,5.13v8.31h-2.22v-8c0-2.44-.78-3.48-2.44-3.48-1,0-2.08.66-3.29,2v9.5h-2.22v-8c0-2.44-.77-3.48-2.44-3.48-1,0-2.08.66-3.29,2v9.5H565Z" transform="translate(0 -4.82)"/><path class="cls-5" d="M586.53,264.82c0-2.86,2.46-4.29,8.06-4.9,0-1.69-.57-3.31-2.71-3.31A7.17,7.17,0,0,0,588,258l-.87-1.52a9.6,9.6,0,0,1,5.15-1.71c3.2,0,4.56,2.13,4.56,5.39v8.05H595l-.19-1.57h-.07a7,7,0,0,1-4.34,1.9A3.57,3.57,0,0,1,586.53,264.82Zm8.06.2v-3.64c-4.4.53-5.89,1.6-5.89,3.28,0,1.49,1,2.1,2.3,2.1A5.41,5.41,0,0,0,594.59,265Z" transform="translate(0 -4.82)"/><path class="cls-5" d="M601,264.17v-7.26h-2v-1.68l2-.13.27-3.68h1.85v3.68h3.56v1.81h-3.56v7.29c0,1.61.52,2.54,2,2.54a4.45,4.45,0,0,0,1.49-.35l.43,1.67a7.84,7.84,0,0,1-2.43.49C601.91,268.55,601,266.78,601,264.17Z" transform="translate(0 -4.82)"/><path class="cls-5" d="M608.34,261.68c0-4.27,2.88-6.9,5.9-6.9,3.35,0,5.24,2.4,5.24,6.15a7.39,7.39,0,0,1-.1,1.26h-8.84c.16,2.79,1.86,4.59,4.36,4.59a5.73,5.73,0,0,0,3.26-1l.8,1.46a7.73,7.73,0,0,1-4.33,1.36C611.13,268.55,608.34,266,608.34,261.68Zm9.18-1.08c0-2.62-1.19-4.05-3.24-4.05-1.84,0-3.49,1.48-3.76,4.05Z" transform="translate(0 -4.82)"/><path class="cls-5" d="M622.71,255.1h1.83l.19,2.39h.08c.91-1.66,2.25-2.71,3.73-2.71a3,3,0,0,1,1.4.27l-.42,1.94a3.68,3.68,0,0,0-1.27-.21c-1.11,0-2.43.8-3.32,3v8.42h-2.22Z" transform="translate(0 -4.82)"/><path class="cls-5" d="M631.67,251a1.54,1.54,0,0,1,3.07,0,1.54,1.54,0,0,1-3.07,0Zm.41,4.13h2.22v13.12h-2.22Z" transform="translate(0 -4.82)"/><path class="cls-5" d="M637.91,264.82c0-2.86,2.46-4.29,8.06-4.9,0-1.69-.57-3.31-2.71-3.31a7.17,7.17,0,0,0-3.91,1.4l-.87-1.52a9.63,9.63,0,0,1,5.15-1.71c3.2,0,4.56,2.13,4.56,5.39v8.05h-1.84l-.18-1.57h-.08a7,7,0,0,1-4.34,1.9A3.57,3.57,0,0,1,637.91,264.82Zm8.06.2v-3.64c-4.4.53-5.89,1.6-5.89,3.28a2,2,0,0,0,2.3,2.1A5.41,5.41,0,0,0,646,265Z" transform="translate(0 -4.82)"/><path class="cls-5" d="M652.33,265.59V249h2.22v16.76c0,.68.29.95.62.95a1.79,1.79,0,0,0,.49-.06l.3,1.7a3.68,3.68,0,0,1-1.28.21C653,268.55,652.33,267.48,652.33,265.59Z" transform="translate(0 -4.82)"/><path class="cls-5" d="M657.76,266.73l1.1-1.47a5.87,5.87,0,0,0,3.87,1.56c1.72,0,2.58-.92,2.58-2,0-1.35-1.55-1.95-3-2.49-1.84-.67-3.92-1.57-3.92-3.79s1.68-3.72,4.53-3.72a6.7,6.7,0,0,1,4.08,1.47l-1.06,1.42a5,5,0,0,0-3-1.16c-1.65,0-2.41.88-2.41,1.88,0,1.25,1.42,1.72,2.91,2.27,1.89.72,4,1.49,4,4,0,2.12-1.69,3.9-4.79,3.9A7.87,7.87,0,0,1,657.76,266.73Z" transform="translate(0 -4.82)"/><circle class="cls-6" cx="35.72" cy="153.2" r="35.22"/><circle class="cls-6" cx="399.93" cy="153.2" r="35.22"/><circle class="cls-6" cx="341.81" cy="94.94" r="35.22"/><circle class="cls-6" cx="260.22" cy="71.46" r="35.22"/><circle class="cls-6" cx="178.63" cy="71.46" r="35.22"/><circle class="cls-6" cx="97.04" cy="94.94" r="35.22"/><path class="cls-7" d="M17.5,169.63a20.81,20.81,0,0,0,36.44,0" transform="translate(0 -4.82)"/><path class="cls-7" d="M15.17,150.26c.75-5,4.89-8.43,9.16-8,3.71.39,6.87,3.67,7.47,8" transform="translate(0 -4.82)"/><path class="cls-7" d="M39.63,150.26c.75-5,4.89-8.43,9.15-8,3.72.39,6.88,3.67,7.48,8" transform="translate(0 -4.82)"/><path class="cls-7" d="M78.82,112a20.81,20.81,0,0,0,36.44,0" transform="translate(0 -4.82)"/><path class="cls-7" d="M76.5,92.67c.75-5,4.89-8.43,9.15-8,3.71.39,6.87,3.67,7.48,8" transform="translate(0 -4.82)"/><path class="cls-7" d="M101,92.67c.75-5,4.89-8.43,9.16-8,3.71.39,6.87,3.67,7.47,8" transform="translate(0 -4.82)"/><path class="cls-7" d="M160.41,88.24a20.81,20.81,0,0,0,36.44,0" transform="translate(0 -4.82)"/><path class="cls-7" d="M158.09,68.87c.75-5,4.89-8.44,9.15-8,3.72.4,6.87,3.68,7.48,8" transform="translate(0 -4.82)"/><path class="cls-7" d="M182.55,68.87c.75-5,4.88-8.44,9.15-8,3.71.4,6.87,3.68,7.48,8" transform="translate(0 -4.82)"/><path class="cls-7" d="M242,88.24a20.81,20.81,0,0,0,36.44,0" transform="translate(0 -4.82)"/><path class="cls-7" d="M239.68,68.87c.75-5,4.89-8.44,9.15-8,3.72.4,6.87,3.68,7.48,8" transform="translate(0 -4.82)"/><path class="cls-7" d="M264.14,68.87c.75-5,4.89-8.44,9.15-8,3.72.4,6.87,3.68,7.48,8" transform="translate(0 -4.82)"/><path class="cls-7" d="M323.59,112A20.81,20.81,0,0,0,360,112" transform="translate(0 -4.82)"/><path class="cls-7" d="M321.27,92.67c.75-5,4.89-8.43,9.15-8,3.72.39,6.87,3.67,7.48,8" transform="translate(0 -4.82)"/><path class="cls-7" d="M345.73,92.67c.75-5,4.89-8.43,9.15-8,3.72.39,6.87,3.67,7.48,8" transform="translate(0 -4.82)"/><path class="cls-7" d="M381.71,170.59a20.8,20.8,0,0,0,36.44,0" transform="translate(0 -4.82)"/><path class="cls-7" d="M379.38,151.23c.75-5,4.89-8.44,9.15-8,3.72.4,6.88,3.68,7.48,8" transform="translate(0 -4.82)"/><path class="cls-7" d="M403.84,151.23c.75-5,4.89-8.44,9.15-8,3.72.4,6.87,3.68,7.48,8" transform="translate(0 -4.82)"/><path class="cls-8" d="M217.82,461.46v38.17" transform="translate(0 -4.82)"/><path class="cls-8" d="M217.82,461.46v38.17" transform="translate(0 -4.82)"/><path class="cls-9" d="M217.82,461.46v38.17" transform="translate(0 -4.82)"/><path class="cls-10" d="M223.66,466.21c1-.55-2.37-12.45-5.84-12.32s-6.91,11.68-5.8,12.29c.68.37,3.13-3,5.83-3S223.08,466.54,223.66,466.21Z" transform="translate(0 -4.82)"/><path class="cls-11" d="M225.19,489.61" transform="translate(0 -4.82)"/><path class="cls-8" d="M218.54,308.59v38.17" transform="translate(0 -4.82)"/><path class="cls-8" d="M218.54,308.59v38.17" transform="translate(0 -4.82)"/><path class="cls-9" d="M218.54,308.59v38.17" transform="translate(0 -4.82)"/><path class="cls-10" d="M224.38,313.34c1-.56-2.38-12.45-5.84-12.32s-6.92,11.67-5.8,12.29c.67.36,3.13-3,5.82-3S223.79,313.67,224.38,313.34Z" transform="translate(0 -4.82)"/><path class="cls-8" d="M347.06,239h88.08" transform="translate(0 -4.82)"/><path class="cls-8" d="M347.06,239h88.08" transform="translate(0 -4.82)"/><path class="cls-9" d="M347.06,239h88.08" transform="translate(0 -4.82)"/><path class="cls-10" d="M351.8,233.16c-.55-1-12.44,2.37-12.31,5.84s11.67,6.91,12.28,5.8c.37-.68-3-3.13-3-5.83S352.14,233.74,351.8,233.16Z" transform="translate(0 -4.82)"/><path class="cls-8" d="M451.09,184.27l22.48,21.4,5.16,4.92" transform="translate(0 -4.82)"/><path class="cls-8" d="M451.09,184.27l22.48,21.4,5.16,4.92" transform="translate(0 -4.82)"/><path class="cls-9" d="M451.09,184.27l22.48,21.4,5.16,4.92" transform="translate(0 -4.82)"/><path class="cls-10" d="M458.55,183.31c.27-1.08-10.64-6.86-12.94-4.26s3.68,13.06,4.9,12.67c.73-.23,0-4.32,1.86-6.27S458.39,184,458.55,183.31Z" transform="translate(0 -4.82)"/><path class="cls-8" d="M191.06,153l-5.18-30.61-1.19-7" transform="translate(0 -4.82)"/><path class="cls-8" d="M191.06,153l-5.18-30.61-1.19-7" transform="translate(0 -4.82)"/><path class="cls-9" d="M191.06,153l-5.18-30.61-1.19-7" transform="translate(0 -4.82)"/><path class="cls-10" d="M184.51,149.3c-.86.71,4.42,11.88,7.81,11.17s4.87-12.66,3.67-13.08c-.72-.25-2.59,3.46-5.24,3.9S185,148.88,184.51,149.3Z" transform="translate(0 -4.82)"/><path class="cls-8" d="M254.05,154l4.58-30.7,1.05-7" transform="translate(0 -4.82)"/><path class="cls-8" d="M254.05,154l4.58-30.7,1.05-7" transform="translate(0 -4.82)"/><path class="cls-9" d="M254.05,154l4.58-30.7,1.05-7" transform="translate(0 -4.82)"/><path class="cls-10" d="M249,148.4c-1,.4.51,12.66,4,13s8.57-10.53,7.55-11.3c-.61-.46-3.53,2.49-6.2,2.09S249.6,148.15,249,148.4Z" transform="translate(0 -4.82)"/><path class="cls-8" d="M309.17,167.47l13.09-25.35,3-5.82" transform="translate(0 -4.82)"/><path class="cls-8" d="M309.17,167.47l13.09-25.35,3-5.82" transform="translate(0 -4.82)"/><path class="cls-9" d="M309.17,167.47l13.09-25.35,3-5.82" transform="translate(0 -4.82)"/><path class="cls-10" d="M306.16,160.57c-1.11.05-3.61,12.15-.47,13.63s11.51-7.21,10.8-8.26c-.43-.64-4.15,1.21-6.54,0S306.83,160.54,306.16,160.57Z" transform="translate(0 -4.82)"/><path class="cls-8" d="M356.4,197.88l12.27-9.6,2.82-2.21" transform="translate(0 -4.82)"/><path class="cls-8" d="M356.4,197.88l12.27-9.6,2.82-2.21" transform="translate(0 -4.82)"/><path class="cls-9" d="M356.4,197.88l12.27-9.6,2.82-2.21" transform="translate(0 -4.82)"/><path class="cls-10" d="M356.54,190.36c-1-.42-8.34,9.54-6.1,12.19s13.46-1.75,13.25-3c-.12-.76-4.28-.63-5.93-2.75S357.16,190.61,356.54,190.36Z" transform="translate(0 -4.82)"/><path class="cls-8" d="M130.51,166.25,118.63,141.9l-2.73-5.6" transform="translate(0 -4.82)"/><path class="cls-8" d="M130.51,166.25,118.63,141.9l-2.73-5.6" transform="translate(0 -4.82)"/><path class="cls-9" d="M130.51,166.25,118.63,141.9l-2.73-5.6" transform="translate(0 -4.82)"/><path class="cls-10" d="M123.18,164.55c-.63.91,7.58,10.14,10.64,8.51s1.1-13.53-.17-13.59c-.76,0-1.51,4.05-3.93,5.23S123.55,164,123.18,164.55Z" transform="translate(0 -4.82)"/><path class="cls-8" d="M78.22,198.33,68.7,187.54l-2.19-2.48" transform="translate(0 -4.82)"/><path class="cls-8" d="M78.22,198.33,68.7,187.54l-2.19-2.48" transform="translate(0 -4.82)"/><path class="cls-9" d="M78.22,198.33,68.7,187.54l-2.19-2.48" transform="translate(0 -4.82)"/><path class="cls-10" d="M70.7,198.64c-.36,1.05,10,7.76,12.53,5.37s-2.54-13.33-3.78-13c-.75.17-.38,4.3-2.4,6.08S70.92,198,70.7,198.64Z" transform="translate(0 -4.82)"/></svg>